<?xml version="1.0" standalone="no"?>
<!DOCTYPE svg PUBLIC "-//W3C//DTD SVG 20010904//EN"
 "http://www.w3.org/TR/2001/REC-SVG-20010904/DTD/svg10.dtd">
<svg version="1.0" xmlns="http://www.w3.org/2000/svg"
 width="100.000000pt" height="100.000000pt" viewBox="0 0 100.000000 100.000000"
 preserveAspectRatio="xMidYMid meet">

<g transform="translate(0.000000,100.000000) scale(0.100000,-0.100000)"
fill="#000000" stroke="none">
<path d="M0 500 l0 -500 243 1 c180 1 227 4 182 10 -77 11 -191 66 -251 121
-83 76 -130 162 -158 291 -6 25 -4 27 27 27 33 0 34 -1 52 -66 20 -76 80 -170
133 -212 100 -79 226 -114 338 -93 168 31 296 146 339 305 18 65 19 66 52 66
31 0 33 -2 27 -28 -28 -128 -75 -214 -158 -290 -60 -55 -174 -110 -251 -121
-45 -6 2 -9 183 -10 l242 -1 0 500 0 500 -500 0 -500 0 0 -500z m631 464 c186
-55 317 -200 352 -391 6 -32 5 -33 -27 -33 -32 0 -33 1 -51 66 -35 129 -133
234 -264 285 -78 31 -204 31 -282 0 -131 -51 -229 -156 -264 -285 -18 -65 -19
-66 -51 -66 -32 0 -33 1 -27 33 44 239 239 405 479 406 46 1 103 -6 135 -15z
m-151 -543 l0 -299 -62 -4 c-35 -2 -65 -2 -68 0 -3 2 8 13 24 25 51 37 56 66
56 302 l0 215 -93 0 c-108 0 -131 -11 -147 -70 -18 -65 -30 -46 -30 45 l0 85
160 0 160 0 0 -299z m360 214 c0 -91 -12 -110 -30 -45 -16 59 -39 70 -147 70
l-93 0 0 -215 c0 -236 5 -265 56 -302 16 -12 27 -23 24 -25 -3 -2 -33 -2 -67
0 l-63 4 0 299 0 299 160 0 160 0 0 -85z"/>
</g>
</svg>
