<?xml version="1.0" standalone="no"?>
<!DOCTYPE svg PUBLIC "-//W3C//DTD SVG 20010904//EN"
 "http://www.w3.org/TR/2001/REC-SVG-20010904/DTD/svg10.dtd">
<svg version="1.0" xmlns="http://www.w3.org/2000/svg"
 width="270.000000pt" height="56.000000pt" viewBox="0 0 270.000000 56.000000"
 preserveAspectRatio="xMidYMid meet">

<g transform="translate(0.000000,56.000000) scale(0.100000,-0.100000)"
fill="#000000" stroke="none">
<path d="M0 280 l0 -280 1350 0 1350 0 0 280 0 280 -1350 0 -1350 0 0 -280z
m498 88 c-3 -7 -17 -14 -32 -16 l-27 -3 2 -77 c2 -69 0 -77 -16 -77 -16 0 -18
8 -16 77 l2 77 -27 3 c-15 2 -29 9 -32 16 -3 9 16 12 73 12 57 0 76 -3 73 -12z
m159 -78 c18 -47 33 -88 33 -92 0 -16 -30 -7 -42 12 -9 14 -24 20 -50 20 -28
0 -38 -5 -43 -20 -5 -16 -45 -30 -45 -16 0 7 60 168 66 178 3 5 15 8 27 6 16
-2 28 -23 54 -88z m103 26 c0 -64 14 -96 43 -96 31 1 41 20 45 90 4 59 7 70
21 68 13 -3 16 -17 15 -77 0 -64 -3 -76 -23 -92 -23 -19 -65 -24 -96 -13 -27
11 -45 60 -45 124 0 53 2 60 20 60 18 0 20 -7 20 -64z m314 42 c21 -30 20 -50
-4 -80 -17 -22 -18 -27 -5 -44 19 -25 19 -44 0 -44 -9 0 -25 16 -36 35 -12 19
-27 35 -35 35 -9 0 -14 -12 -14 -35 0 -24 -5 -35 -15 -35 -12 0 -15 17 -15 95
l0 95 54 0 c45 0 58 -4 70 -22z m101 -73 c0 -78 -2 -90 -17 -93 -16 -3 -18 7
-18 93 0 86 2 96 18 93 15 -3 17 -15 17 -93z m169 89 c9 -3 16 -15 16 -26 0
-15 -4 -18 -17 -13 -10 5 -29 8 -43 9 -41 2 -29 -25 20 -43 37 -14 46 -21 48
-45 2 -16 -4 -36 -14 -47 -29 -32 -124 -20 -124 16 0 18 4 18 47 3 28 -10 36
-10 50 5 16 15 14 18 -35 38 -60 25 -76 56 -47 89 18 20 66 26 99 14z m306 -9
c0 -9 -9 -15 -25 -15 -25 0 -25 -1 -25 -81 0 -71 -2 -80 -17 -77 -15 3 -18 16
-21 81 -3 74 -4 77 -27 77 -16 0 -25 6 -25 15 0 12 14 15 70 15 56 0 70 -3 70
-15z m178 3 c-3 -7 -23 -14 -46 -16 -37 -3 -42 -6 -42 -28 0 -22 4 -24 46 -24
59 0 55 -24 -4 -28 -37 -3 -42 -6 -42 -28 0 -22 4 -24 46 -24 72 0 51 -24 -24
-28 l-62 -3 0 96 0 95 66 0 c48 0 65 -3 62 -12z m191 -4 c34 -24 12 -39 -33
-23 -31 11 -38 11 -56 -6 -30 -27 -27 -80 6 -102 24 -16 29 -16 54 -1 40 23
64 5 30 -22 -59 -46 -150 -1 -150 75 0 74 88 121 149 79z m105 -24 c1 -34 2
-35 44 -38 l42 -3 0 40 c0 35 3 41 20 41 20 0 21 -5 18 -92 -2 -75 -6 -93 -18
-93 -10 0 -16 12 -18 38 -3 37 -3 37 -48 37 l-46 0 4 -37 c2 -30 -1 -38 -15
-41 -15 -3 -17 7 -17 93 0 85 2 96 17 93 12 -2 17 -13 17 -38z"/>
<path d="M586 302 c-21 -41 -21 -42 14 -42 35 0 34 -2 16 41 l-14 33 -16 -32z"/>
<path d="M980 320 c0 -29 2 -31 33 -28 27 2 32 7 32 28 0 21 -5 26 -32 28 -31
3 -33 1 -33 -28z"/>
</g>
</svg>
